# xmcd
#
# Track frame offsets:
#	150
#	9315
#	17925
#	28995
#	37980
#	49095
#	59378
#	69376
#	79666
#	91644
#	102227
#	112255
#
# Disc length: 1675 seconds
#
# Revision: 1
# Processed by: cddbd v1.5.2PL0 Copyright (c) Steve Scherf et al.
# Submitted via: audiograbber 1.83.01
#
DISCID=9306890c
DTITLE=Chet Atkins - Caribbean Guitar
DYEAR=1962
DGENRE=Country Instrumental
TTITLE0=Mayan Dance
TTITLE1=Yellow Bird
TTITLE2=Wild Orchids
TTITLE3=The Bandit
TTITLE4=Jungle Dream
TTITLE5=The Banana Boat Song
TTITLE6=Montego
TTITLE7=Theme From "Come September"
TTITLE8=Move Over Miami
TTITLE9=Come To The Mardi Gras
TTITLE10=The Enchanted Sea
TTITLE11=Temptation
EXTD=
EXTT0=
EXTT1=
EXTT2=
EXTT3=
EXTT4=
EXTT5=
EXTT6=
EXTT7=
EXTT8=
EXTT9=
EXTT10=
EXTT11=
PLAYORDER=
